# xmcd CD database file
#
# Track frame offsets:
#	150
#	62160
#	111507
#	154599
#	169316
#	195057
#	243603
#	278068
#
# Disc length: 4367 seconds
#
# Revision: 0
# Processed by: cddbd v1.5.2PL0 Copyright (c) Steve Scherf et al.
# Submitted via: CDex 1.79
#
DISCID=6a110d08
DTITLE=John Coltrane - Ultimate collection
DYEAR=2015
DGENRE=Jazz
TTITLE0=My favorite things
TTITLE1=I want to talk about you
TTITLE2=But not for me
TTITLE3=Summertime
TTITLE4=Trane's blues
TTITLE5=Blue train
TTITLE6=One and four
TTITLE7=Man made Miles
EXTD=YEAR: 2015
EXTT0=
EXTT1=
EXTT2=
EXTT3=
EXTT4=
EXTT5=
EXTT6=
EXTT7=
PLAYORDER=
